<svg width="138" height="35" viewBox="0 0 138 35" fill="none" xmlns="http://www.w3.org/2000/svg">
<path d="M47.3501 10.6364H50.2781L53.0973 15.9609H53.218L56.0373 10.6364H58.9652L54.4556 18.6293V23H51.8597V18.6293L47.3501 10.6364ZM71.0074 16.8182C71.0074 18.1664 70.7518 19.3134 70.2407 20.2592C69.7336 21.205 69.0413 21.9274 68.164 22.4265C67.2906 22.9215 66.3086 23.169 65.218 23.169C64.1192 23.169 63.1332 22.9195 62.2599 22.4205C61.3865 21.9214 60.6963 21.199 60.1892 20.2532C59.6821 19.3074 59.4285 18.1624 59.4285 16.8182C59.4285 15.4699 59.6821 14.3229 60.1892 13.3771C60.6963 12.4313 61.3865 11.7109 62.2599 11.2159C63.1332 10.7169 64.1192 10.4673 65.218 10.4673C66.3086 10.4673 67.2906 10.7169 68.164 11.2159C69.0413 11.7109 69.7336 12.4313 70.2407 13.3771C70.7518 14.3229 71.0074 15.4699 71.0074 16.8182ZM68.3572 16.8182C68.3572 15.9448 68.2264 15.2083 67.9648 14.6087C67.7072 14.009 67.343 13.5542 66.8721 13.2443C66.4012 12.9344 65.8498 12.7795 65.218 12.7795C64.5861 12.7795 64.0347 12.9344 63.5638 13.2443C63.093 13.5542 62.7267 14.009 62.4651 14.6087C62.2075 15.2083 62.0787 15.9448 62.0787 16.8182C62.0787 17.6915 62.2075 18.428 62.4651 19.0277C62.7267 19.6274 63.093 20.0821 63.5638 20.392C64.0347 20.7019 64.5861 20.8569 65.218 20.8569C65.8498 20.8569 66.4012 20.7019 66.8721 20.392C67.343 20.0821 67.7072 19.6274 67.9648 19.0277C68.2264 18.428 68.3572 17.6915 68.3572 16.8182ZM80.5804 10.6364H83.1944V18.6655C83.1944 19.567 82.9791 20.3558 82.5485 21.032C82.1219 21.7081 81.5242 22.2353 80.7555 22.6136C79.9868 22.9879 79.0913 23.1751 78.0691 23.1751C77.0428 23.1751 76.1453 22.9879 75.3766 22.6136C74.6079 22.2353 74.0102 21.7081 73.5836 21.032C73.157 20.3558 72.9437 19.567 72.9437 18.6655V10.6364H75.5577V18.4421C75.5577 18.913 75.6603 19.3316 75.8656 19.6978C76.0749 20.064 76.3687 20.3518 76.747 20.5611C77.1253 20.7704 77.566 20.875 78.0691 20.875C78.5762 20.875 79.0169 20.7704 79.3912 20.5611C79.7695 20.3518 80.0613 20.064 80.2665 19.6978C80.4758 19.3316 80.5804 18.913 80.5804 18.4421V10.6364ZM85.3451 23V10.6364H90.2229C91.1566 10.6364 91.9535 10.8034 92.6135 11.1374C93.2776 11.4674 93.7827 11.9363 94.1288 12.544C94.479 13.1477 94.654 13.8581 94.654 14.6751C94.654 15.4961 94.4769 16.2024 94.1228 16.794C93.7686 17.3816 93.2555 17.8324 92.5834 18.1463C91.9153 18.4602 91.1063 18.6172 90.1565 18.6172H86.8905V16.5163H89.7339C90.233 16.5163 90.6475 16.4479 90.9775 16.3111C91.3076 16.1742 91.5531 15.969 91.714 15.6953C91.8791 15.4216 91.9616 15.0816 91.9616 14.6751C91.9616 14.2646 91.8791 13.9184 91.714 13.6367C91.5531 13.355 91.3055 13.1417 90.9715 12.9968C90.6415 12.8479 90.2249 12.7734 89.7219 12.7734H87.9591V23H85.3451ZM92.0219 17.3736L95.0947 23H92.2091L89.2027 17.3736H92.0219ZM107.143 14.1921C107.095 13.7051 106.887 13.3268 106.521 13.0572C106.155 12.7875 105.658 12.6527 105.03 12.6527C104.603 12.6527 104.243 12.7131 103.949 12.8338C103.656 12.9505 103.43 13.1135 103.273 13.3228C103.12 13.5321 103.044 13.7695 103.044 14.0352C103.036 14.2565 103.082 14.4497 103.183 14.6147C103.287 14.7797 103.43 14.9226 103.611 15.0433C103.792 15.16 104.002 15.2627 104.239 15.3512C104.477 15.4357 104.73 15.5082 105 15.5685L106.111 15.8342C106.65 15.9549 107.145 16.1159 107.596 16.3171C108.046 16.5183 108.437 16.7659 108.767 17.0597C109.097 17.3535 109.352 17.6996 109.534 18.098C109.719 18.4964 109.813 18.9532 109.817 19.4684C109.813 20.225 109.62 20.881 109.238 21.4364C108.859 21.9878 108.312 22.4164 107.596 22.7223C106.883 23.0241 106.024 23.1751 105.018 23.1751C104.02 23.1751 103.151 23.0221 102.41 22.7163C101.673 22.4104 101.098 21.9576 100.683 21.358C100.273 20.7543 100.058 20.0077 100.037 19.1183H102.567C102.595 19.5328 102.714 19.8789 102.923 20.1566C103.136 20.4303 103.42 20.6375 103.774 20.7784C104.133 20.9152 104.537 20.9837 104.988 20.9837C105.43 20.9837 105.815 20.9193 106.141 20.7905C106.471 20.6617 106.726 20.4826 106.907 20.2532C107.089 20.0238 107.179 19.7602 107.179 19.4624C107.179 19.1847 107.097 18.9512 106.932 18.7621C106.771 18.5729 106.533 18.4119 106.219 18.2791C105.909 18.1463 105.529 18.0256 105.078 17.9169L103.732 17.5788C102.69 17.3253 101.867 16.9289 101.263 16.3896C100.659 15.8503 100.359 15.1238 100.363 14.2102C100.359 13.4616 100.559 12.8076 100.961 12.2482C101.368 11.6888 101.925 11.2521 102.633 10.9382C103.342 10.6243 104.147 10.4673 105.048 10.4673C105.966 10.4673 106.767 10.6243 107.451 10.9382C108.139 11.2521 108.674 11.6888 109.057 12.2482C109.439 12.8076 109.636 13.4556 109.648 14.1921H107.143ZM114.19 10.6364V23H111.576V10.6364H114.19ZM115.869 12.7915V10.6364H126.023V12.7915H122.238V23H119.654V12.7915H115.869ZM127.696 23V10.6364H136.027V12.7915H130.31V15.7376H135.598V17.8928H130.31V20.8448H136.051V23H127.696Z" fill="#36485C"/>
<path fill-rule="evenodd" clip-rule="evenodd" d="M8.45606 4.92425C8.81668 4.29769 9.31844 3.7649 9.92105 3.36892L14.2169 0.907276C15.3563 0.245173 16.2931 0.788396 16.2931 2.1126V16.0338C16.2931 17.3581 15.3563 17.9013 14.2169 17.2392L9.92105 14.6927C9.31844 14.2967 8.81668 13.764 8.45606 13.1374C8.0955 12.5108 7.8861 11.8078 7.84482 11.085V6.97657C7.8861 6.25376 8.0955 5.55081 8.45606 4.92425ZM7.46164 15.1078C8.16061 15.1078 8.84981 15.2706 9.47353 15.583L13.653 17.9532C14.7594 18.5864 14.7594 19.6174 13.653 20.2505L2.016 26.9068C0.909699 27.5399 0 27.0204 0 25.7541V20.981C0.040069 20.2899 0.243371 19.6177 0.593492 19.0185C0.943673 18.4193 1.4309 17.9099 2.016 17.5312L5.44974 15.583C6.07346 15.2706 6.76266 15.1078 7.46164 15.1078ZM25.079 3.36892C25.6816 3.7649 26.1834 4.29769 26.544 4.92425C26.9046 5.55081 27.114 6.25376 27.1552 6.97657V11.085C27.114 11.8078 26.9046 12.5108 26.544 13.1374C26.1834 13.764 25.6816 14.2967 25.079 14.6927L20.7747 17.2392C19.6353 17.9013 18.7069 17.3581 18.7069 16.0338V2.1126C18.7069 0.788396 19.6353 0.245173 20.7747 0.907276L25.079 3.36892ZM27.2316 15.1078C26.5032 15.1078 25.7849 15.2706 25.1348 15.583L20.7787 17.9532C19.6255 18.5864 19.6255 19.6174 20.7787 20.2505L32.9074 26.9068C34.0604 27.5399 35 27.0204 35 25.7541V20.981C34.9599 20.2905 34.7496 19.6185 34.3861 19.0192C34.0227 18.42 33.5161 17.9103 32.9074 17.5312L29.3286 15.583C28.6785 15.2706 27.9601 15.1078 27.2316 15.1078ZM7.42591 33.34C8.05 33.6521 8.73956 33.8146 9.43889 33.8146C10.1383 33.8146 10.8278 33.6521 11.4519 33.34L14.8877 31.3864C15.4722 31.006 15.9584 30.4955 16.3073 29.8958C16.6562 29.296 16.858 28.6238 16.8965 27.933V23.1664C16.8965 21.9017 15.9946 21.3829 14.8877 22.0152L3.24402 28.6626C2.13705 29.2949 2.13705 30.3244 3.24402 30.9567L7.42591 33.34ZM18.1148 29.8943C17.7514 29.2964 17.5409 28.626 17.5 27.9369V23.1654C17.5 21.9017 18.4396 21.3832 19.5927 22.015L31.7214 28.6579C32.8745 29.2898 32.8745 30.3187 31.7214 30.9505L27.3653 33.3403C26.7152 33.6522 25.9969 33.8146 25.2685 33.8146C24.5399 33.8146 23.8216 33.6522 23.1715 33.3403L19.5927 31.3799C18.9844 31.001 18.4783 30.4923 18.1148 29.8943Z" fill="#36485C"/>
</svg>
